<svg width="256" height="92" viewBox="0 0 256 92" fill="none" xmlns="http://www.w3.org/2000/svg">
<path d="M224.76 74.4222C227.511 73.9519 225.944 70.7337 224.113 68.2462C222.314 66.2096 218.428 62.367 216.459 61.4256C212.741 59.6489 206.951 59.909 211.609 67.0973C213.461 69.954 218.755 75.4484 224.76 74.4222Z" fill="#825FFF"/>
<path d="M241.548 56.6725C241.548 58.9784 244.875 61.0758 245.872 64.1557C246.6 66.4046 245.518 72.2461 246.534 74.6331C248.75 79.8394 253.162 81.0534 248.824 81.0534C233.138 81.0534 228.346 62.5444 228.346 54.8824C228.346 47.2205 239.277 32.2175 253.961 33.8902C258.694 34.4294 254.273 34.8147 249.97 40.3105C248.025 42.7939 249.523 47.7096 248.026 50.2359C245.864 53.8841 241.548 53.8874 241.548 56.6725Z" fill="#9477FF"/>
<path d="M223.941 40.6575C223.116 47.7541 205.875 27.7985 198.73 27.7985C191.586 27.7985 181.324 20.5244 181.324 13.3799C181.324 6.2354 193.367 -0.432439 202.251 1.26812C208.375 2.44036 202.008 7.61898 205.444 13.3799C208.762 18.9433 219.673 14.9763 218.215 27.0881C217.53 32.7807 225.399 28.1293 223.941 40.6575Z" fill="#9477FF"/>
<path d="M169.033 77.8324C170.09 79.3193 172.063 77.825 172.063 77.825C172.063 77.825 177.521 74.3727 176.223 69.2946C175.384 66.013 171.514 60.0308 168.132 67.9005C166.795 71.0124 167.07 75.0717 169.033 77.8324Z" fill="#825FFF"/>
<path d="M137.029 62.015C136.611 65.1156 140.833 65.5554 140.833 65.5554C140.833 65.5554 151.318 67.1052 155.641 59.2238C158.434 54.1306 161.356 42.8428 147.9 48.7382C142.579 51.0694 137.805 56.2579 137.029 62.015Z" fill="#9477FF"/>
<path d="M232.044 47.0649C239.27 54.2028 233.938 62.2659 223.502 63.3783C206.954 71.0486 197.223 71.9237 182.38 71.3327C162.685 71.3327 142.868 58.2478 142.868 41.5562C142.868 24.8647 158.506 11.3315 176.395 11.3315C189.745 11.3315 202.037 15.5159 215.521 29.6168C219.046 33.6704 227.601 43.1329 232.044 47.0649Z" fill="#ECE7FB"/>
<circle cx="177.859" cy="35.4333" r="8.37651" fill="#464445"/>
<circle cx="176.399" cy="30.5655" r="2.73178" fill="white"/>
<path d="M234.846 56.5001C234.846 56.5001 233.359 61.4455 225.762 62.9661C209.723 66.1764 214.172 71.5434 187.469 71.5434C169.202 71.5434 160.033 66.9765 152.166 60.1709C151.449 59.5509 169.277 58.8153 175.736 60.5064C189.935 64.2248 201.959 63.8864 206.667 63.8864C196.949 63.8864 218.95 63.8864 206.667 63.8864C219.451 63.8864 234.846 56.5001 234.846 56.5001Z" fill="#E2D8FF"/>
<path d="M225.972 65.9598C226.492 69.814 221.243 70.3607 221.243 70.3607C221.243 70.3607 208.211 72.2871 202.837 62.4903C199.365 56.1592 195.733 42.1281 212.459 49.4562C219.073 52.354 225.008 58.8036 225.972 65.9598Z" fill="#9477FF"/>
<path d="M207.666 80.4178C210.418 79.9476 208.641 74.0909 206.809 71.6034C205.011 69.5668 201.335 68.3626 199.365 67.4212C195.648 65.6445 189.858 65.9046 194.516 73.0929C196.367 75.9496 201.662 81.444 207.666 80.4178Z" fill="#8867FF"/>
<ellipse cx="148.638" cy="34.1155" rx="4.96586" ry="7.56628" transform="rotate(6.33721 148.638 34.1155)" fill="#464445"/>
<circle cx="149.697" cy="29.4262" r="1.89317" fill="white"/>
<g filter="url(#filter0_g_44_47)">
<ellipse cx="181.876" cy="47.3242" rx="4.89904" ry="2.53549" transform="rotate(-15 181.876 47.3242)" fill="#FFB0AA" fill-opacity="0.26"/>
</g>
<g filter="url(#filter1_g_44_47)">
<ellipse cx="146.915" cy="44.7301" rx="3.15767" ry="1.53711" transform="rotate(20.5183 146.915 44.7301)" fill="#FFB0AA" fill-opacity="0.26"/>
</g>
<path d="M157.47 51.3814L160.252 52.78L162.589 51.3705C162.752 51.2723 162.939 51.2226 163.129 51.2271L165.808 51.2912L167.474 48.7006" stroke="#9477FF" stroke-opacity="0.36" stroke-width="2" stroke-linecap="round"/>
<g clip-path="url(#clip0_44_47)">
<mask id="mask0_44_47" style="mask-type:alpha" maskUnits="userSpaceOnUse" x="0" y="0" width="92" height="92">
<path fill-rule="evenodd" clip-rule="evenodd" d="M65.239 91.3717C66.688 91.9362 68.3402 91.9001 69.8027 91.1963L88.7439 82.0821C90.7343 81.1244 92 79.1101 92 76.9002V15.1002C92 12.8904 90.7344 10.8761 88.744 9.91833L69.8027 0.803855C67.8833 -0.119719 65.637 0.106499 63.9524 1.33119C63.7118 1.50614 63.4826 1.70148 63.2675 1.91674L27.0067 34.9982L11.2122 23.0088C9.74188 21.8928 7.68534 21.9842 6.31978 23.2264L1.25399 27.8345C-0.416347 29.3539 -0.418262 31.9817 1.24985 33.5036L14.9473 46.0001L1.24985 58.4965C-0.418262 60.0184 -0.416347 62.6463 1.25399 64.1657L6.31978 68.7738C7.68534 70.016 9.74188 70.1074 11.2122 68.9913L27.0067 57.002L63.2675 90.0834C63.8411 90.6574 64.5146 91.0896 65.239 91.3717ZM69.014 25.115L41.5004 46.0001L69.014 66.8851V25.115Z" fill="white"/>
</mask>
<g mask="url(#mask0_44_47)">
<path d="M88.7445 9.93258L69.7884 0.80558C67.5942 -0.25087 64.972 0.194763 63.25 1.91674L1.1947 58.4966C-0.474427 60.0184 -0.472508 62.6463 1.19884 64.1657L6.26771 68.7738C7.63411 70.0159 9.69193 70.1074 11.1631 68.9913L85.892 12.3004C88.3991 10.3985 92 12.1866 92 15.3334V15.1134C92 12.9045 90.7346 10.8909 88.7445 9.93258Z" fill="#0065A9"/>
<g filter="url(#filter2_d_44_47)">
<path d="M88.7445 82.0675L69.7884 91.1945C67.5942 92.2512 64.972 91.8053 63.25 90.0834L1.1947 33.5036C-0.474427 31.9817 -0.472508 29.3538 1.19884 27.8344L6.26771 23.2263C7.63411 21.9841 9.69193 21.8927 11.1631 23.0087L85.892 79.6997C88.3991 81.6016 92 79.8135 92 76.6667V76.8868C92 79.0956 90.7346 81.1092 88.7445 82.0675Z" fill="#007ACC"/>
</g>
<g filter="url(#filter3_d_44_47)">
<path d="M69.7892 91.1962C67.5943 92.2521 64.9721 91.8054 63.25 90.0833C65.3719 92.2052 69 90.7023 69 87.7016V4.29837C69 1.29756 65.3719 -0.205252 63.25 1.91663C64.9721 0.194496 67.5943 -0.251767 69.7892 0.803748L88.742 9.91825C90.7335 10.876 92 12.8903 92 15.1001V76.9001C92 79.11 90.7335 81.1243 88.7419 82.082L69.7892 91.1962Z" fill="#1F9CF0"/>
</g>
<g style="mix-blend-mode:overlay" opacity="0.25">
<path fill-rule="evenodd" clip-rule="evenodd" d="M65.183 91.3717C66.632 91.9362 68.2843 91.9 69.7468 91.1963L88.688 82.0821C90.6783 81.1244 91.9441 79.1101 91.9441 76.9001V15.1002C91.9441 12.8903 90.6784 10.876 88.6881 9.91825L69.7468 0.80381C67.8275 -0.119765 65.5811 0.106453 63.8965 1.33114C63.6559 1.5061 63.4267 1.70143 63.2116 1.91669L26.9508 34.9981L11.1563 23.0088C9.68605 21.8927 7.62943 21.9842 6.26388 23.2263L1.19808 27.8344C-0.472256 29.3539 -0.474171 31.9817 1.19394 33.5036L14.8914 46L1.19394 58.4966C-0.474171 60.0184 -0.472256 62.6462 1.19808 64.1656L6.26388 68.7737C7.62943 70.0159 9.68605 70.1073 11.1563 68.9913L26.9508 57.0019L63.2116 90.0834C63.7852 90.6573 64.4587 91.0896 65.183 91.3717ZM68.9581 25.115L41.4445 46L68.9581 66.8851V25.115Z" fill="url(#paint0_linear_44_47)"/>
</g>
</g>
</g>
<rect x="125" y="44.5" width="3" height="14" rx="1.5" transform="rotate(90 125 44.5)" fill="#5E5E5E"/>
<rect x="119.5" y="53" width="3" height="14" rx="1.5" transform="rotate(-180 119.5 53)" fill="#5E5E5E"/>
<defs>
<filter id="filter0_g_44_47" x="172.898" y="40.3658" width="17.956" height="13.9169" filterUnits="userSpaceOnUse" color-interpolation-filters="sRGB">
<feFlood flood-opacity="0" result="BackgroundImageFix"/>
<feBlend mode="normal" in="SourceGraphic" in2="BackgroundImageFix" result="shape"/>
<feTurbulence type="fractalNoise" baseFrequency="0.99900001287460327 0.99900001287460327" numOctaves="3" seed="9950" />
<feDisplacementMap in="shape" scale="8.3999996185302734" xChannelSelector="R" yChannelSelector="G" result="displacedImage" width="100%" height="100%" />
<feMerge result="effect1_texture_44_47">
<feMergeNode in="displacedImage"/>
</feMerge>
</filter>
<filter id="filter1_g_44_47" x="139.708" y="38.7141" width="14.4132" height="12.0319" filterUnits="userSpaceOnUse" color-interpolation-filters="sRGB">
<feFlood flood-opacity="0" result="BackgroundImageFix"/>
<feBlend mode="normal" in="SourceGraphic" in2="BackgroundImageFix" result="shape"/>
<feTurbulence type="fractalNoise" baseFrequency="0.99900001287460327 0.99900001287460327" numOctaves="3" seed="9950" />
<feDisplacementMap in="shape" scale="8.3999996185302734" xChannelSelector="R" yChannelSelector="G" result="displacedImage" width="100%" height="100%" />
<feMerge result="effect1_texture_44_47">
<feMergeNode in="displacedImage"/>
</feMerge>
</filter>
<filter id="filter2_d_44_47" x="-8.38925" y="13.8961" width="108.723" height="86.1994" filterUnits="userSpaceOnUse" color-interpolation-filters="sRGB">
<feFlood flood-opacity="0" result="BackgroundImageFix"/>
<feColorMatrix in="SourceAlpha" type="matrix" values="0 0 0 0 0 0 0 0 0 0 0 0 0 0 0 0 0 0 127 0" result="hardAlpha"/>
<feOffset/>
<feGaussianBlur stdDeviation="4.16667"/>
<feColorMatrix type="matrix" values="0 0 0 0 0 0 0 0 0 0 0 0 0 0 0 0 0 0 0.25 0"/>
<feBlend mode="overlay" in2="BackgroundImageFix" result="effect1_dropShadow_44_47"/>
<feBlend mode="normal" in="SourceGraphic" in2="effect1_dropShadow_44_47" result="shape"/>
</filter>
<filter id="filter3_d_44_47" x="54.9167" y="-8.0962" width="45.4167" height="108.193" filterUnits="userSpaceOnUse" color-interpolation-filters="sRGB">
<feFlood flood-opacity="0" result="BackgroundImageFix"/>
<feColorMatrix in="SourceAlpha" type="matrix" values="0 0 0 0 0 0 0 0 0 0 0 0 0 0 0 0 0 0 127 0" result="hardAlpha"/>
<feOffset/>
<feGaussianBlur stdDeviation="4.16667"/>
<feColorMatrix type="matrix" values="0 0 0 0 0 0 0 0 0 0 0 0 0 0 0 0 0 0 0.25 0"/>
<feBlend mode="overlay" in2="BackgroundImageFix" result="effect1_dropShadow_44_47"/>
<feBlend mode="normal" in="SourceGraphic" in2="effect1_dropShadow_44_47" result="shape"/>
</filter>
<linearGradient id="paint0_linear_44_47" x1="45.9441" y1="0.237197" x2="45.9441" y2="91.7629" gradientUnits="userSpaceOnUse">
<stop stop-color="white"/>
<stop offset="1" stop-color="white" stop-opacity="0"/>
</linearGradient>
<clipPath id="clip0_44_47">
<rect width="92" height="92" fill="white"/>
</clipPath>
</defs>
</svg>
